<?xml version="1.0" encoding="UTF-8"?>
<svg width="752pt" height="752pt" version="1.1" viewBox="0 0 752 752" xmlns="http://www.w3.org/2000/svg">
 <defs>
  <clipPath id="a">
   <path d="m139.21 145h473.58v462h-473.58z"/>
  </clipPath>
 </defs>
 <g clip-path="url(#a)">
  <path d="m578.41 145.07c18.754 0 34.387 15.629 34.387 34.387v393.09c0 18.754-15.629 34.387-34.387 34.387h-404.81c-18.754 0-34.387-15.629-34.387-34.387v-393.09c0-18.754 15.629-34.387 34.387-34.387zm-202.41 115.66c63.301 0 115.66 51.578 115.66 114.88 0 64.082-52.359 115.66-115.66 115.66-64.082 0-115.66-51.578-115.66-115.66 0-63.301 51.578-114.88 115.66-114.88z" fill-rule="evenodd"/>
 </g>
</svg>
