<?xml version="1.0" encoding="UTF-8"?>
<svg width="752pt" height="752pt" version="1.1" viewBox="0 0 752 752" xmlns="http://www.w3.org/2000/svg">
 <defs>
  <clipPath id="a">
   <path d="m139.21 144h473.58v464h-473.58z"/>
  </clipPath>
 </defs>
 <g clip-path="url(#a)">
  <path d="m173.71 144.7h404.58c18.816 0 34.5 15.68 34.5 34.5v393.61c0 18.816-15.68 34.5-34.5 34.5h-404.58c-18.816 0-34.5-15.68-34.5-34.5v-393.61c0-18.816 15.68-34.5 34.5-34.5zm330.88 415.56c29.793 0 54.102-24.305 54.102-54.102 0-30.578-24.305-54.887-54.102-54.887-30.578 0-54.887 24.305-54.887 54.887 0 29.793 24.305 54.102 54.887 54.102zm-258.75-368.52c30.578 0 54.887 24.305 54.887 54.102 0 30.578-24.305 54.887-54.887 54.887-29.793 0-54.887-24.305-54.887-54.887 0-29.793 25.09-54.102 54.887-54.102z" fill-rule="evenodd"/>
 </g>
</svg>
