<?xml version="1.0" encoding="UTF-8"?>
<svg width="752pt" height="752pt" version="1.1" viewBox="0 0 752 752" xmlns="http://www.w3.org/2000/svg">
 <defs>
  <clipPath id="a">
   <path d="m139.21 145h473.58v462h-473.58z"/>
  </clipPath>
 </defs>
 <g clip-path="url(#a)">
  <path d="m578.41 145.07c18.754 0 34.387 15.629 34.387 34.387v393.09c0 18.754-15.629 34.387-34.387 34.387h-404.81c-18.754 0-34.387-15.629-34.387-34.387v-393.09c0-18.754 15.629-34.387 34.387-34.387zm-277.43 33.605c-30.477 0-54.703 24.227-54.703 53.922 0 30.477 24.227 54.703 54.703 54.703 29.695 0 53.922-24.227 53.922-54.703 0-29.695-24.227-53.922-53.922-53.922zm0 276.64c-30.477 0-54.703 24.227-54.703 54.703 0 29.695 24.227 53.922 54.703 53.922 29.695 0 53.922-24.227 53.922-53.922 0-30.477-24.227-54.703-53.922-54.703zm0-133.63c-30.477 0-54.703 24.227-54.703 53.922 0 30.477 24.227 54.703 54.703 54.703 29.695 0 53.922-24.227 53.922-54.703 0-29.695-24.227-53.922-53.922-53.922zm150.05-143.01c29.695 0 54.703 24.227 54.703 53.922 0 30.477-25.008 54.703-54.703 54.703-30.477 0-54.703-24.227-54.703-54.703 0-29.695 24.227-53.922 54.703-53.922zm0 276.64c30.477 0 54.703 24.227 54.703 54.703 0 29.695-24.227 53.922-54.703 53.922-29.695 0-54.703-24.227-54.703-53.922 0-30.477 25.008-54.703 54.703-54.703zm0-133.63c29.695 0 54.703 24.227 54.703 53.922 0 30.477-25.008 54.703-54.703 54.703-29.695 0-54.703-24.227-54.703-54.703 0-29.695 25.008-53.922 54.703-53.922z" fill-rule="evenodd"/>
 </g>
</svg>
